HIERARCHY
ROOT hips
{
  OFFSET 0 9.313263304106702 1.2146308026317778
  CHANNELS 6 Xposition Yposition Zposition Yrotation Xrotation Zrotation
  JOINT spine
  {
    OFFSET -6.402521e-31 0.5173342420023708 0
    CHANNELS 3 Yrotation Xrotation Zrotation
    JOINT chest
    {
      OFFSET 0 1.130544299341115 0
      CHANNELS 3 Yrotation Xrotation Zrotation
      JOINT upperChest
      {
        OFFSET 0 1.0863555061129995 0
        CHANNELS 3 Yrotation Xrotation Zrotation
        JOINT neck
        {
          OFFSET 0 1.3773706506454462 0
          CHANNELS 3 Yrotation Xrotation Zrotation
          JOINT head
          {
            OFFSET 0 0.7374408940073979 0
            CHANNELS 3 Yrotation Xrotation Zrotation
            JOINT leftEye
            {
              OFFSET 0.25066580148932727 0.6408406698778757 0.15963719178883284
              CHANNELS 3 Yrotation Xrotation Zrotation
              End Site
              {
                OFFSET 0.25066580148932727 0.6408406698778757 0.15963719178883284
              }
            }
            JOINT rightEye
            {
              OFFSET -0.25066576739704244 0.6408406384191823 0.15963727561643756
              CHANNELS 3 Yrotation Xrotation Zrotation
              End Site
              {
                OFFSET -0.25066576739704244 0.6408406384191823 0.15963727561643756
              }
            }
          }
        }
        JOINT leftShoulder
        {
          OFFSET 0.3761817444281191 1.0539491987447769 0
          CHANNELS 3 Yrotation Xrotation Zrotation
          JOINT leftUpperArm
          {
            OFFSET 0.8702844380000002 0 0
            CHANNELS 3 Yrotation Xrotation Zrotation
            JOINT leftLowerArm
            {
              OFFSET 2.198527310000323 0 0
              CHANNELS 3 Yrotation Xrotation Zrotation
              JOINT leftHand
              {
                OFFSET 2.146852313968281 0 0
                CHANNELS 3 Yrotation Xrotation Zrotation
                JOINT leftIndexProximal
                {
                  OFFSET 0.6585177834681599 0.07380250427007962 0.18382213159631788
                  CHANNELS 3 Yrotation Xrotation Zrotation
                  JOINT leftIndexIntermediate
                  {
                    OFFSET 0.3323021288626682 -0.009606893929485771 -0.012820872253340998
                    CHANNELS 3 Yrotation Xrotation Zrotation
                    JOINT leftIndexDistal
                    {
                      OFFSET 0.2045908926985518 -0.0071133989147997845 -0.006828784783599051
                      CHANNELS 3 Yrotation Xrotation Zrotation
                      End Site
                      {
                        OFFSET 0.2045908926985518 -0.0071133989147997845 -0.006828784783599051
                      }
                    }
                  }
                }
                JOINT leftLittleProximal
                {
                  OFFSET 0.6110054258835662 0.07380246363125398 -0.29175655876064077
                  CHANNELS 3 Yrotation Xrotation Zrotation
                  JOINT leftLittleIntermediate
                  {
                    OFFSET 0.3144281999999998 -2.5124724523095665e-9 1.8658118799974588e-7
                    CHANNELS 3 Yrotation Xrotation Zrotation
                    JOINT leftLittleDistal
                    {
                      OFFSET 0.18116185580251631 0.002815456192251098 0.0034826415518049436
                      CHANNELS 3 Yrotation Xrotation Zrotation
                      End Site
                      {
                        OFFSET 0.18116185580251631 0.002815456192251098 0.0034826415518049436
                      }
                    }
                  }
                }
                JOINT leftMiddleProximal
                {
                  OFFSET 0.6637478005691111 0.07380246480054087 0.02046981859247815
                  CHANNELS 3 Yrotation Xrotation Zrotation
                  JOINT leftMiddleIntermediate
                  {
                    OFFSET 0.3705733999999994 -2.9611069152224445e-9 9.35054791928458e-8
                    CHANNELS 3 Yrotation Xrotation Zrotation
                    JOINT leftMiddleDistal
                    {
                      OFFSET 0.22861063500000056 -1.82673876025774e-9 -1.6740782024515788e-7
                      CHANNELS 3 Yrotation Xrotation Zrotation
                      End Site
                      {
                        OFFSET 0.22861063500000056 -1.82673876025774e-9 -1.6740782024515788e-7
                      }
                    }
                  }
                }
                JOINT leftRingProximal
                {
                  OFFSET 0.6561845547265777 0.07380246406440083 -0.13588087571513918
                  CHANNELS 3 Yrotation Xrotation Zrotation
                  JOINT leftRingIntermediate
                  {
                    OFFSET 0.3437531000000005 -2.746796123886952e-9 1.4935781944558357e-7
                    CHANNELS 3 Yrotation Xrotation Zrotation
                    JOINT leftRingDistal
                    {
                      OFFSET 0.1983118991198174 -0.002467117924596085 -0.004538141969590015
                      CHANNELS 3 Yrotation Xrotation Zrotation
                      End Site
                      {
                        OFFSET 0.1983118991198174 -0.002467117924596085 -0.004538141969590015
                      }
                    }
                  }
                }
                JOINT leftThumbProximal
                {
                  OFFSET 0.09767004258864787 -0.14930060425447422 -0.07008212897521154
                  CHANNELS 3 Yrotation Xrotation Zrotation
                  JOINT leftThumbIntermediate
                  {
                    OFFSET 0.36682123028154767 -0.015768465060082004 0.28693641268151077
                    CHANNELS 3 Yrotation Xrotation Zrotation
                    JOINT leftThumbDistal
                    {
                      OFFSET 0.21091084272403915 -0.016756648201192714 0.1933767059105508
                      CHANNELS 3 Yrotation Xrotation Zrotation
                      End Site
                      {
                        OFFSET 0.21091084272403915 -0.016756648201192714 0.1933767059105508
                      }
                    }
                  }
                }
              }
            }
          }
        }
        JOINT rightShoulder
        {
          OFFSET -0.37618174442811925 1.0539491987447769 0
          CHANNELS 3 Yrotation Xrotation Zrotation
          JOINT rightUpperArm
          {
            OFFSET -0.870284438 0 0
            CHANNELS 3 Yrotation Xrotation Zrotation
            JOINT rightLowerArm
            {
              OFFSET -2.1985273100003235 0 0
              CHANNELS 3 Yrotation Xrotation Zrotation
              JOINT rightHand
              {
                OFFSET -2.1468523139682802 0 0
                CHANNELS 3 Yrotation Xrotation Zrotation
                JOINT rightIndexProximal
                {
                  OFFSET -0.6585177834681599 0.07380250427007962 0.18382213159631788
                  CHANNELS 3 Yrotation Xrotation Zrotation
                  JOINT rightIndexIntermediate
                  {
                    OFFSET -0.3323021288626682 -0.009606893929485771 -0.012820872253340998
                    CHANNELS 3 Yrotation Xrotation Zrotation
                    JOINT rightIndexDistal
                    {
                      OFFSET -0.2045908926985518 -0.0071133989147997845 -0.006828784783599051
                      CHANNELS 3 Yrotation Xrotation Zrotation
                      End Site
                      {
                        OFFSET -0.2045908926985518 -0.0071133989147997845 -0.006828784783599051
                      }
                    }
                  }
                }
                JOINT rightLittleProximal
                {
                  OFFSET -0.6110054258835662 0.07380246363125398 -0.29175655876064077
                  CHANNELS 3 Yrotation Xrotation Zrotation
                  JOINT rightLittleIntermediate
                  {
                    OFFSET -0.3144281999999998 -2.5124724523095665e-9 1.8658118799974588e-7
                    CHANNELS 3 Yrotation Xrotation Zrotation
                    JOINT rightLittleDistal
                    {
                      OFFSET -0.18116185580251631 0.002815456192251098 0.0034826415518049436
                      CHANNELS 3 Yrotation Xrotation Zrotation
                      End Site
                      {
                        OFFSET -0.18116185580251631 0.002815456192251098 0.0034826415518049436
                      }
                    }
                  }
                }
                JOINT rightMiddleProximal
                {
                  OFFSET -0.6637478005691111 0.07380246480054087 0.02046981859247815
                  CHANNELS 3 Yrotation Xrotation Zrotation
                  JOINT rightMiddleIntermediate
                  {
                    OFFSET -0.3705733999999994 -2.9611069152224445e-9 9.35054791928458e-8
                    CHANNELS 3 Yrotation Xrotation Zrotation
                    JOINT rightMiddleDistal
                    {
                      OFFSET -0.22861063500000056 -1.82673876025774e-9 -1.6740782024515788e-7
                      CHANNELS 3 Yrotation Xrotation Zrotation
                      End Site
                      {
                        OFFSET -0.22861063500000056 -1.82673876025774e-9 -1.6740782024515788e-7
                      }
                    }
                  }
                }
                JOINT rightRingProximal
                {
                  OFFSET -0.6561845547265777 0.07380246406440083 -0.13588087571513918
                  CHANNELS 3 Yrotation Xrotation Zrotation
                  JOINT rightRingIntermediate
                  {
                    OFFSET -0.3437531000000005 -2.746796123886952e-9 1.4935781944558357e-7
                    CHANNELS 3 Yrotation Xrotation Zrotation
                    JOINT rightRingDistal
                    {
                      OFFSET -0.1983118991198174 -0.002467117924596085 -0.004538141969590015
                      CHANNELS 3 Yrotation Xrotation Zrotation
                      End Site
                      {
                        OFFSET -0.1983118991198174 -0.002467117924596085 -0.004538141969590015
                      }
                    }
                  }
                }
                JOINT rightThumbProximal
                {
                  OFFSET -0.09767004258864787 -0.14930060425447422 -0.07008212897521154
                  CHANNELS 3 Yrotation Xrotation Zrotation
                  JOINT rightThumbIntermediate
                  {
                    OFFSET -0.36682123028154767 -0.015768465060082004 0.28693641268151077
                    CHANNELS 3 Yrotation Xrotation Zrotation
                    JOINT rightThumbDistal
                    {
                      OFFSET -0.21091084272403915 -0.016756648201192714 0.1933767059105508
                      CHANNELS 3 Yrotation Xrotation Zrotation
                      End Site
                      {
                        OFFSET -0.21091084272403915 -0.016756648201192714 0.1933767059105508
                      }
                    }
                  }
                }
              }
            }
          }
        }
      }
    }
  }
  JOINT leftUpperLeg
  {
    OFFSET 0.7715603 -0.3993844658041501 0
    CHANNELS 3 Yrotation Xrotation Zrotation
    JOINT leftLowerLeg
    {
      OFFSET 0 -3.529830000249343 0
      CHANNELS 3 Yrotation Xrotation Zrotation
      JOINT leftFoot
      {
        OFFSET 0 -4.154939295409685 0.004208579085223096
        CHANNELS 3 Yrotation Xrotation Zrotation
        JOINT leftToes
        {
          OFFSET 0 -0.6353414391261847 1.10414981190622
          CHANNELS 3 Yrotation Xrotation Zrotation
          End Site
          {
            OFFSET 0 -0.6015820691747853 1.10414981190622
          }
        }
      }
    }
  }
  JOINT rightUpperLeg
  {
    OFFSET -0.7715603 -0.3993844658041501 0
    CHANNELS 3 Yrotation Xrotation Zrotation
    JOINT rightLowerLeg
    {
      OFFSET 0 -3.529830000249343 0
      CHANNELS 3 Yrotation Xrotation Zrotation
      JOINT rightFoot
      {
        OFFSET 0 -4.154939295409685 0.004208579085223096
        CHANNELS 3 Yrotation Xrotation Zrotation
        JOINT rightToes
        {
          OFFSET 0 -0.6353414391261847 1.10414981190622
          CHANNELS 3 Yrotation Xrotation Zrotation
          End Site
          {
            OFFSET 0 -0.6015820691747853 1.10414981190622
          }
        }
      }
    }
  }
}
MOTION
Frames: 4
Frame Time: 0.03333333333333333
0.04434658045118505 8.724842938509854 1.3343494138721648 7.821951988181827 -1.8430612505801087 -3.4177435043522686 -0.6300040220915979 1.8076259634304304 2.179270929779356 0.304226005790194 3.2012430809760426 7.023116812324072 0 0 0 -2.5882812285004446 2.5470983937974205 3.0851833398431094 -3.564002653758505 -12.539680454243365 -2.596511506635698 0 0 0 0 0 0 -10.852376826623813 -0.2864706665292704 -17.255700209752032 -8.358629641755277 10.804981981965415 -53.30320849965271 -21.83801203166817 -0.000029644969659081124 0.000001794610829464946 8.39583213917824 -21.693916275695884 -11.319694746965817 -4.759615050130826 -2.028912490429982 -15.226344898658315 1.8023880127290406 0.281844437131413 -17.75423944856334 1.0034180106484119 0.08758505061197769 -9.914572845427408 17.75047886277417 4.142253854196512 -24.057285577638275 2.8109550637072505 0.8467057093240201 -29.152679292662317 1.0002893689383832 0.1225507492867142 -9.91420784059416 4.374720622637206 0.42008521044799724 -20.09007439475632 1.7931744177852431 0.27934172975827476 -17.754292529690073 1.0133834630768446 0.08789385022972558 -9.91457705054748 10.502713177705706 2.84194353113539 -21.156275934678867 1.7924222815491593 0.28047977024854986 -17.77206498680045 1.0110622216012106 0.0878207924661207 -9.91528617657938 -5.512355602590907 -5.752979728218347 5.3444901765124735 21.21374200641291 6.419806792606782 4.5631400514323115 11.423136145456555 -5.521931448741963 15.022488967074782 -0.32820827302459493 4.700905713692965 4.9932838976739715 9.268843807537415 7.8999531549128665 60.01676575286721 22.125258805684776 -0.000011444224833521691 -0.0000047307547940983285 0.7642081518065686 -2.133907570584024 18.690824175154578 5.214445829739412 -1.9796499204617457 14.369758371095537 -1.3974476397131388 0.22001724896802927 17.789405156699278 -0.8153733004213709 0.06991684191430521 9.933779800927415 -16.878073846410274 3.765492840093342 23.744079519189224 -2.2018518610112765 0.5175858615924677 29.21696826888654 -0.8636591540398756 0.05279620248710563 9.933870877960347 -3.8896839581224016 0.33313197399518757 19.432403390413015 -1.3307538021549223 0.21103920859923828 17.789520014027467 -0.8422121175748366 0.06944140303357364 9.933769120097843 -9.940860767270227 2.6563989099392624 20.65203482385287 -1.4526636001129594 0.22593032991742978 17.807156159971175 -0.8179356408658865 0.07354070700651631 9.934470425504491 7.489534760218623 -6.5807829762774315 -5.092148895870195 -22.945555569398888 6.518511687587248 -5.482245470531237 -17.371204050506606 -3.8919380607384015 -16.000494144458006 11.198894833251504 -8.33595786034977 15.517343503738491 -9.009699828311392 13.997706444497098 3.536293589591746 -4.441480764794517 -8.395109145383405 -15.770975297729954 -0.0000028513703128789714 -2.08615201715129 0.0000010281491168369673 -6.475050457455842 -4.741024898985609 7.821377351913516 -9.794738746492405 20.453444604015132 0.4095918461679598 -3.354376205767784 -14.690778644564373 -5.250164633843523 -0.0000043513149731102805 -2.6987695043436744 0.0000013043837967361312
0.04878502677787434 8.725310238924893 1.3376153826500814 7.816954041667107 -1.851809934285423 -3.4286599601136913 -0.6257647503735128 1.7927080845480297 2.1634857944315002 0.308894536394677 3.180999667624086 6.992862098708087 0 0 0 -2.5993643324503903 2.595910403534977 3.1353823696060465 -3.615220049149596 -12.33531547972466 -2.4875962874501023 0 0 0 0 0 0 -10.881703658495757 -0.285515788851696 -17.210745668009825 -8.535270662122944 10.728588716269302 -53.440875666198885 -21.64542320414669 -0.00002458869990199702 0.0000025555550256727233 8.448490713236799 -21.90170567385107 -11.29123300239941 -4.754204535015805 -2.027430905339793 -15.28119298178153 1.8167745186605533 0.2864795512223322 -17.901663300619287 1.008850306472468 0.08854231209301931 -9.9684419662917 17.75865362778994 4.14630792665936 -24.14543368090653 2.8238823947335314 0.8545488581393687 -29.299968526783992 1.00568991924856 0.12368607075418424 -9.968069453620346 4.381672216687663 0.4226450531456827 -20.162321220508392 1.807562942779429 0.2839597138053204 -17.90168337452366 1.0188224820305747 0.08884448829488237 -9.968438602749943 10.508831621681363 2.854961093276723 -21.24349534534268 1.8069105453175371 0.28513414729966485 -17.92053808692429 1.016502567038944 0.08878409707706882 -9.969160933743572 -5.488054252159543 -5.759621856096573 5.360112538385065 21.21374200641291 6.419806792606782 4.5631400514323115 11.423136145456555 -5.521931448741963 15.022488967074782 -0.3142418178382368 4.705865337537286 5.044706236836625 9.413208901225373 7.873590271900166 60.14632740871754 22.004144902412325 -0.000010355672716681671 0.000008785918655642837 0.8248841380345189 -2.1451444485270477 18.730399763235717 5.214447105861518 -1.979656327588138 14.36974676479972 -1.397453614395323 0.220025253154979 17.78941107782751 -0.8153615622138958 0.06990283467999453 9.93378316482469 -16.878077121468962 3.7654667436605864 23.744073441948817 -2.201865298566098 0.5176161717937136 29.21697291666392 -0.863656753073286 0.05279322428323934 9.933895014369753 -3.889689920872014 0.33311631232015193 19.432369386039422 -1.3307666053924565 0.21104176993755194 17.78952163993989 -0.8422058750248688 0.06945143488128605 9.93375087049967 -9.940868344011164 2.656377756310706 20.65200241484747 -1.4526673342011216 0.22595226139849103 17.807156159971175 -0.8179218218020852 0.07353592453613682 9.934484470245003 7.489540320936749 -6.5807889923312075 -5.092147611803818 -22.945560317410067 6.518489345033446 -5.482255307611529 -17.371194861365694 -3.8919188064280448 -16.000500725217137 11.202328677452686 -8.320346764430619 15.508378944510435 -9.00724924022411 14.051707981087901 3.528426036181597 -4.43706805030639 -8.451732645484679 -15.736216241260651 0.0000021450933155783727 -2.0861432601674963 0.000002797480767193262 -6.421312596395746 -4.694015240386657 7.802052651404023 -9.826368689478043 20.41755765152961 0.4052684100182407 -3.3537205638243734 -14.6938202018484 -5.225118015666488 1.2655945379035426e-7 -2.6870323098313547 -8.294848052446206e-7
0.053809552707455376 8.725840828635475 1.341545198159184 7.815123957171219 -1.8584760643204719 -3.4381392567220006 -0.6246158756378736 1.7753526989725252 2.14145400835663 0.30955363079907605 3.1575490588111106 6.952883406641004 0 0 0 -2.619663671863976 2.6419352542548604 3.1856087364081924 -3.7281688203386887 -12.180360038080556 -2.340325167031964 0 0 0 0 0 0 -10.915592726692967 -0.28538433275918323 -17.17295380907061 -8.693899508740628 10.685782275249567 -53.558678885695976 -21.510058213243052 -0.00002076260885038639 8.513714878006529e-7 8.50770670377712 -22.076796468207405 -11.33017804205351 -4.738403548544118 -2.023112168356771 -15.441527231685443 1.8587333248847826 0.300265108105261 -18.33245762237139 1.0247369477115569 0.09134756228743557 -10.125890350537096 17.78250830268149 4.158207040547327 -24.40305451050568 2.861544529132371 0.8776933041420033 -29.730405727991137 1.021478622420907 0.1270359397152168 -10.1255006091863 4.401982728508045 0.4301219427695367 -20.373349072681176 1.8495430565316848 0.29769129236583636 -18.332480861808857 1.034713071887873 0.09166134451291671 -10.125877142980203 10.526516924321433 2.8930161867770035 -21.498443051027706 1.8491928633690762 0.2989948889940977 -18.354498076785372 1.0323898029885754 0.09160228064333989 -10.126567776953149 -5.417087497464934 -5.779078447879593 5.405899594354219 21.21374200641291 6.419806792606782 4.5631400514323115 11.423136145456555 -5.521931448741963 15.022488967074782 -0.3109646094701543 4.710568853167363 5.090912472481623 9.573774701941948 7.869305794035213 60.27382931000167 21.938108780077506 -0.000007694791154621816 0.000006024519352318837 0.9040494133752867 -2.184597313864568 18.771443521389966 5.214450819415742 -1.9796819560939545 14.369750095528826 -1.3974534010138169 0.22001771587893457 17.78941595557065 -0.8153725000890453 0.0699109922264521 9.933761551328683 -16.87807875899826 3.7654539093496826 23.74408265196951 -2.201857619963373 0.5176004296997385 29.21697589740333 -0.863656753073286 0.05278258212362422 9.933859104326602 -3.889684384033091 0.3330940071066859 19.432380184062865 -1.3307613774038127 0.21103800797190386 17.789505963337035 -0.8422153722376324 0.0694513014790558 9.933774165943756 -9.940866660290986 2.656371987139344 20.652025620389782 -1.4526747822667347 0.22594695195234302 17.807156159971175 -0.8179204345601538 0.07353287629490496 9.934458903682344 7.489545881655404 -6.580815205137796 -5.092153053196263 -22.94556007479909 6.518515554567815 -5.482250931313206 -17.37120731737436 -3.8919333541291627 -16.000469224736467 11.203095965284113 -8.30094766041979 15.494954201980594 -9.003369496686796 14.106988159185912 3.520271062189493 -4.432438867220691 -8.514069886168489 -15.697384447873942 -2.387280854968714e-7 -2.0861432601674963 -4.364308685416495e-7 -6.408066133437576 -4.641025924749628 7.770797556782858 -9.811613950923022 20.388697813782645 0.4197592082254876 -3.3574266969426145 -14.697924517767149 -5.1921537332683 0.0000030551710650752377 -2.671489018155782 3.1705846737675505e-8
0.05930956114422191 8.726185018366031 1.3459632163485276 7.819870103690342 -1.8625667293716814 -3.4441900086500974 -0.6276313157998411 1.7547683747060383 2.10698183681959 0.3045663991932531 3.1296931167630038 6.896610652544665 0 0 0 -2.650197326085711 2.6869643601183997 3.2442066867581167 -3.891590973548259 -12.07292548081975 -2.167461891299315 0 0 0 0 0 0 -10.957832101251428 -0.28533566705776936 -17.12782814046362 -8.822483832600746 10.676664801496873 -53.65266732823822 -21.43385161539083 -0.000033569760701344726 -0.00001277053710190815 8.555643948160753 -22.22169205536 -11.405625370416548 -4.712866372829261 -2.016032335042904 -15.700885522096508 1.9264057741967289 0.3232430852228776 -19.029436424970868 1.0504300729589546 0.09598834852591923 -10.38061135828772 17.82098621336646 4.177656214874752 -24.81983452362885 2.9221093576368298 0.915725734456753 -30.426791281772438 1.0470098622555601 0.1325713286569444 -10.380187482844821 4.434779738433364 0.4423836617189061 -20.714795623384457 1.9172503317000957 0.32056675608686713 -19.029489194720345 1.0604014140695968 0.09630922779647942 -10.380592267318761 10.554504708350295 2.954694757022148 -21.910906145832985 1.917374617628757 0.32209556856494687 -19.056587692911762 1.0580694393950805 0.09624488785727191 -10.38125793182554 -5.302364124133508 -5.810619224856148 5.480005188170666 21.21374200641291 6.419806792606782 4.5631400514323115 11.423136145456555 -5.521931448741963 15.022488967074782 -0.31713226971485425 4.715474147146152 5.136388870236997 9.729331443763124 7.855327895809033 60.39496891589064 21.879199622862235 -0.000010910753093910174 -0.000010223191469534946 0.9932619776772085 -2.254455327890715 18.808966075317947 5.21445221034989 -1.9796674332739432 14.369749267972123 -1.3974544679213465 0.22002233162674187 17.789401904870356 -0.8153640165663736 0.0699053092913891 9.933765756200481 -16.878075483939636 3.76546931052279 23.744077952799024 -2.2018648719770595 0.5175958404791294 29.216948364075797 -0.8636667837781287 0.052803086040051336 9.933875082829337 -3.8896873654079043 0.3331100156330919 19.432372606647007 -1.3307558293342074 0.2110250812176095 17.78952489176465 -0.8422137715837991 0.06945655752692723 9.933765756200481 -9.940868344011164 2.656372628158383 20.652021215542486 -1.4526660539423244 0.2259629870133287 17.80716533313065 -0.8179180335645013 0.07353178239651983 9.934458062709727 7.489552698488648 -6.580801454157118 -5.092117650253541 -22.945560317410067 6.518493212013841 -5.482250175221852 -17.371193839394813 -3.8919158113131407 -16.000513185077484 11.198973462225567 -8.29073985253034 15.475754737813736 -9.003075707360757 14.184076940191527 3.5074854935137934 -4.427429793526349 -8.590443938966185 -15.652423324458017 0.000003418145664920129 -2.0861400563929497 -0.000005948672929363393 -6.435386775017574 -4.584359709300927 7.728118468361931 -9.758518727508548 20.368312809369673 0.4468269373561039 -3.3675920853131496 -14.714337256572602 -5.141747428762914 0.00000497487051780394 -2.648891531265542 -0.0000012440441760647775
